<?xml version="1.0" standalone="no"?><!DOCTYPE svg PUBLIC "-//W3C//DTD SVG 1.1//EN" "http://www.w3.org/Graphics/SVG/1.1/DTD/svg11.dtd"><svg t="1663944120907" class="icon" viewBox="0 0 1024 1024" version="1.1" xmlns="http://www.w3.org/2000/svg" p-id="4605" width="32" height="32" xmlns:xlink="http://www.w3.org/1999/xlink"><path d="M305.535186 887.276614l-78.409237 69.084895-23.619097-24.582355c-11.944405-13.832391-19.265168-27.626253-20.49814-41.458643-0.385304-4.58511 0.577955-10.749964 0.192651-15.296544l27.39507-300.921936 65.347453-59.876145L333.39262 574.10203 305.535186 887.276614zM344.142584 451.305844l-68.198697 62.958571-54.636019-62.958571 22.694369-267.0923c3.005367-18.456032 3.583321-29.167466 4.58511-35.33232 1.849456-13.793861 8.592265-24.582355 21.461398-35.293789l41.304522-36.835003 59.606433 67.543682L344.142584 451.305844zM627.571748 901.109005l66.310711 73.670005-34.137879 30.747209c-14.140634 13.75533-30.631618 18.417501-59.799084 18.417501L329.770769 1023.943722c-29.167466 0-46.583178-6.164854-58.411991-18.417501l-27.279479-30.747209 82.609044-73.670005L627.571748 901.109005zM393.692599 122.834716 329.578116 56.832248l29.552769-30.747209C377.471326 7.667537 395.233812 0 418.236423 0l280.924691 0c21.499929 0 42.383371 10.749964 56.023111 26.085038l24.042931 29.205996-80.066041 67.543682L393.692599 122.834716zM680.319779 574.10203l68.275758-61.378828 54.520427 61.378828-22.809959 265.589617c-1.310032 19.958715-3.313609 32.249892-2.928306 36.873533-1.849456 13.75533-8.746387 23.002612-23.002612 35.255259l-44.50254 35.293789-56.023111-61.378828L680.319779 574.10203zM719.466602 144.296115 799.378523 75.211219l18.764274 21.499929c13.63974 15.335075 20.960503 29.167466 22.309065 44.50254 0.539424 6.164854 1.07885 12.291178 0.077061 18.417501l-25.12178 291.674656-69.855502 61.455889-52.979214-61.455889L719.466602 144.296115z" p-id="4606" fill="#e6e6e6"></path></svg>