<?xml version="1.0" standalone="no"?><!DOCTYPE svg PUBLIC "-//W3C//DTD SVG 1.1//EN" "http://www.w3.org/Graphics/SVG/1.1/DTD/svg11.dtd"><svg t="1663944190651" class="icon" viewBox="0 0 1024 1024" version="1.1" xmlns="http://www.w3.org/2000/svg" p-id="7171" width="32" height="32" xmlns:xlink="http://www.w3.org/1999/xlink"><path d="M323.635 438.182l-63.99 60.249-28.273-30.124c-14.854-15.044-23.85-31.637-25.173-46.68-0.53-5.972 0.038-16.555 0.227-31.636l30.2-326.756L303.376 0l53.71 63.235-33.451 374.947z m323.43 13.532l55.108 61.76-73.175 58.737h-248.44c-13.57 0-22.604 0-27.253-1.512-13.531 0-30.766-7.522-38.968-15.043l-38.176-40.632 68.262-63.273h302.642z m91.469 512.037L673.03 1024l-54.957-60.249 33.564-373.51 64.255-57.226 56.205 57.225-33.564 373.511z m45.886-525.569l-65.503 60.249-53.596-61.76 32.203-371.925L764.16 0l53.861 64.746-33.601 373.436z" p-id="7172" fill="#e6e6e6"></path></svg>