<?xml version="1.0" standalone="no"?><!DOCTYPE svg PUBLIC "-//W3C//DTD SVG 1.1//EN" "http://www.w3.org/Graphics/SVG/1.1/DTD/svg11.dtd"><svg t="1663944197307" class="icon" viewBox="0 0 1024 1024" version="1.1" xmlns="http://www.w3.org/2000/svg" p-id="7417" width="32" height="32" xmlns:xlink="http://www.w3.org/1999/xlink"><path d="M344.615 435.956l-65.544 58.338-28.899-32.213c-15.182-15.336-22.657-30.71-24.121-47.549-0.54-6.165-1.195-13.833-0.463-23.08l33.37-373.033 111.782 119.72-26.125 297.817zM627.829 901.16l64.541 70.63-31.25 29.169c-18.34 18.418-34.833 23.042-70.128 23.042H293.174l-57.413-59.88 68.164-62.961h323.904zM395.478 122.84L281.884 0h449.79l57.798 64.503-68.549 58.338H395.478z m239.094 328.49c36.837 0 41.73 3.044 68.819 32.29l27.127 29.169-72.942 61.344H408.887c-47.587 0-58.762-4.586-84.078-30.71l-27.127-29.17 71.247-62.962h265.643z m44.312 138.177l68.434-59.88 30.325 30.711c11.83 12.253 19.536 30.71 20.769 44.505 0.655 7.668 0.192 19.96-0.116 33.793L779.57 845.864c-2.928 36.838-11.79 58.377-26.048 70.63l-42.694 38.379-57.837-64.504 25.894-300.86z" p-id="7418" fill="#e6e6e6"></path></svg>