<?xml version="1.0" standalone="no"?><!DOCTYPE svg PUBLIC "-//W3C//DTD SVG 1.1//EN" "http://www.w3.org/Graphics/SVG/1.1/DTD/svg11.dtd"><svg t="1663944156670" class="icon" viewBox="0 0 1024 1024" version="1.1" xmlns="http://www.w3.org/2000/svg" p-id="5711" width="32" height="32" xmlns:xlink="http://www.w3.org/1999/xlink"><path d="M303.949341 890.369478l-75.716278 64.503333-29.16907-35.334263c-8.47714-9.209257-14.179944-21.501111-15.37445-35.29573-0.539454-6.165193 0.346792-13.79462 1.194506-21.501111l19.651553-231.81126c2.735804-21.501111 8.900998-38.416859 21.655241-50.631648l52.519739-49.128882 52.288544 53.714245L303.949341 890.369478zM344.177225 437.497514l-64.118008 56.796841-30.440641-32.213134c-13.524892-13.79462-22.772682-32.251666-24.005721-46.046286-0.655052-7.667959 0.077065-16.877216 0.655052-27.666304l18.572644-208.768851c2.04222-29.16907 8.63127-41.422391 29.785589-62.923502L312.619143 76.756654l57.952815 66.006098L344.177225 437.497514zM633.440378 901.158566l61.613398 72.171292-31.36542 27.627772c-21.269916 19.959813-30.247979 23.042409-70.129071 23.042409L337.164318 1024.000039c-38.378327 0-54.138102-4.623895-69.551084-23.042409l-23.774526-26.125006 82.613587-73.674057L633.440378 901.158566zM673.899458 451.330666l56.180322 62.962034L661.646137 574.133606 356.122287 574.133606l-57.451893-59.879438 68.202448-62.962034L673.899458 451.292134zM393.421705 122.841472 332.501891 58.33814l30.941563-32.251666C381.669306 6.126661 394.963003 0 421.049477 0l277.857546 0c24.583707 0 38.917781 6.126661 54.484894 26.086473l28.822278 30.7489-80.224575 66.006098L393.421705 122.841472zM678.716015 594.093418l68.318046-61.382204 33.792965 35.29573c10.134036 10.750555 15.952437 24.545175 17.301073 39.919625 0.809182 9.170725 0.077065 18.418514-0.539454 29.16907l-20.036878 227.187365c-0.462389 12.291854-2.735804 21.501111-3.891778 26.086473-2.273415 9.209257-7.706491 16.915749-23.389201 30.710368l-38.378327 35.334263-59.494113-66.044631L678.716015 594.093418zM718.9439 141.221454l78.683277-66.006098L823.174195 104.384425c10.288166 12.291854 15.952437 24.583707 17.031346 36.837029 0.655052 7.667959-0.192662 15.335918-0.924779 24.583707l-18.765306 224.104769c-4.315635 38.378327-12.060659 55.294075-33.446172 73.71259l-36.952626 33.754432-57.451893-59.879438L718.9439 141.221454z" p-id="5712" fill="#e6e6e6"></path></svg>