<?xml version="1.0" standalone="no"?><!DOCTYPE svg PUBLIC "-//W3C//DTD SVG 1.1//EN" "http://www.w3.org/Graphics/SVG/1.1/DTD/svg11.dtd"><svg t="1663944162972" class="icon" viewBox="0 0 1024 1024" version="1.1" xmlns="http://www.w3.org/2000/svg" p-id="6003" width="32" height="32" xmlns:xlink="http://www.w3.org/1999/xlink"><path d="M323.04 434.453l-64.12 56.797-36.875-35.334c-11.83-12.215-15.722-21.463-16.8-33.754-0.925-10.712-1.002-29.17 0.577-46.047l17.571-202.642c4.47-36.837 10.79-52.173 32.098-72.171l35.411-33.755 59.61 67.548-27.474 299.358z m286.45 466.706l61.035 66.006-34.024 32.251c-19.767 19.96-34.718 24.584-71.555 24.584H271.752l-60.495-59.88 71.246-62.96H609.49zM364.422 574.133c-30.71 0-40.343-4.586-60.766-27.628l-29.169-35.295 69.975-59.918h302.44l57.453 59.918-68.202 62.923h-271.73z m9.633-451.292l-63-70.668 25.508-24.584C362.15 4.585 374.056 0 418.561 0h233.353c50.63 0 58.608 3.044 80.687 27.628l22.117 24.583-79.8 70.63H374.056z m283.368 466.666l68.28-61.42 54.523 61.42-22.696 267.146c-3.314 32.213-8.516 42.963-29.901 61.382l-36.953 33.793-59.494-66.006 26.24-296.315z m40.343-451.33l75.562-66.044 27.397 32.25c11.83 12.293 17.494 24.585 18.419 35.297 0.693 7.707-0.155 15.375-0.771 26.125l-23.35 259.4-70.592 70.63-52.713-58.337 26.048-299.32z" p-id="6004" fill="#e6e6e6"></path></svg>