<svg t="1664254769274" class="icon" viewBox="0 0 1024 1024" version="1.1" xmlns="http://www.w3.org/2000/svg" p-id="2056" width="32" height="32"><path d="M512 512m-507.12381 0a507.12381 507.12381 0 1 0 1014.24762 0 507.12381 507.12381 0 1 0-1014.24762 0Z" fill="#FFBD66" p-id="2057"></path><path d="M512 1024A512 512 0 1 1 1024 512 512.78019 512.78019 0 0 1 512 1024z m0-1014.247619A502.247619 502.247619 0 1 0 1014.247619 512 502.832762 502.832762 0 0 0 512 9.752381z" fill="#351D14" p-id="2058"></path><path d="M516.681143 773.948952a234.057143 234.057143 0 0 1-213.187048-136.533333 5.071238 5.071238 0 0 1 2.730667-6.436571 4.87619 4.87619 0 0 1 6.241524 2.730666 224.304762 224.304762 0 0 0 204.214857 129.901715c160.329143 0 203.824762-128.341333 204.214857-129.511619a4.87619 4.87619 0 1 1 9.167238 2.925714c-0.390095 1.950476-46.031238 136.923429-213.382095 136.923428z" fill="#351D14" p-id="2059"></path><path d="M623.957333 427.934476a116.443429 84.845714 90 1 0 169.691429 0 116.443429 84.845714 90 1 0-169.691429 0Z" fill="#FFFFFF" p-id="2060"></path><path d="M708.803048 549.254095c-49.542095 0-89.721905-54.418286-89.721905-121.319619s40.17981-121.319619 89.721905-121.319619 89.526857 54.418286 89.526857 121.319619-40.17981 121.319619-89.526857 121.319619z m0-232.886857c-44.080762 0-79.969524 50.127238-79.969524 111.567238s35.888762 111.567238 79.969524 111.567238 79.774476-50.127238 79.774476-111.567238-35.693714-111.567238-79.774476-111.567238z" fill="#351D14" p-id="2061"></path><path d="M651.459048 465.773714a78.60419 57.344 90 1 0 114.688 0 78.60419 57.344 90 1 0-114.688 0Z" fill="#351D14" p-id="2062"></path><path d="M237.763048 427.934476a116.443429 84.845714 90 1 0 169.691428 0 116.443429 84.845714 90 1 0-169.691428 0Z" fill="#FFFFFF" p-id="2063"></path><path d="M322.608762 549.254095c-49.542095 0-89.721905-54.418286-89.721905-121.319619s40.17981-121.319619 89.721905-121.319619 89.721905 54.418286 89.721905 121.319619-40.374857 121.319619-89.721905 121.319619z m0-232.886857c-44.080762 0-79.969524 50.127238-79.969524 111.567238s35.888762 111.567238 79.969524 111.567238 79.969524-50.127238 79.969524-111.567238-35.888762-111.567238-79.969524-111.567238z" fill="#351D14" p-id="2064"></path><path d="M265.264762 465.773714a78.60419 57.344 90 1 0 114.688 0 78.60419 57.344 90 1 0-114.688 0Z" fill="#351D14" p-id="2065"></path><path d="M654.969905 247.125333a113.90781 113.90781 0 0 1 35.693714-8.777143 199.143619 199.143619 0 0 1 35.693714 1.950477c23.990857 1.755429 47.786667 4.096 71.582477 6.826666v1.170286c-23.79581 2.730667-47.591619 5.071238-71.582477 6.826667a199.143619 199.143619 0 0 1-35.693714 1.950476 119.56419 119.56419 0 0 1-35.693714-8.777143 0.975238 0.975238 0 0 1 0-1.365333v0.195047zM240.298667 247.125333c23.79581-2.730667 47.591619-5.071238 71.582476-6.826666a199.143619 199.143619 0 0 1 35.693714-1.950477 113.90781 113.90781 0 0 1 35.693714 8.777143 0.975238 0.975238 0 0 1 0 1.365334 119.56419 119.56419 0 0 1-35.693714 8.777143 199.143619 199.143619 0 0 1-35.693714-1.950477c-23.990857-1.755429-47.786667-4.096-71.582476-6.826666a1.170286 1.170286 0 0 1-0.975238-1.170286 1.365333 1.365333 0 0 1 0.975238-0.195048z" fill="#351D14" p-id="2066"></path></svg>