<svg t="1664197095215" class="icon" viewBox="0 0 1024 1024" version="1.1" xmlns="http://www.w3.org/2000/svg" p-id="1886" width="32" height="32"><path d="M160 64m96 0l512 0q96 0 96 96l0 704q0 96-96 96l-512 0q-96 0-96-96l0-704q0-96 96-96Z" fill="#3F86FF" p-id="1887"></path><path d="M736 192H288a32 32 0 1 0 0 64h448a32 32 0 1 0 0-64zM544 352H288a32 32 0 1 0 0 64h256a32 32 0 1 0 0-64z" fill="#FFFFFF" opacity=".75" p-id="1888"></path><path d="M761 655L633.2 527.3a24.1 24.1 0 0 0-4-3.3 17.2 17.2 0 0 0-3.8-2h-1.4a14.9 14.9 0 0 0-3-0.9 17.2 17.2 0 0 0-3.9 0h-1.1a26.1 26.1 0 0 0-4.8 0h-0.8a22.9 22.9 0 0 0-3.7 1.2h-0.5a24.8 24.8 0 0 0-7.2 4.9L471 655a24 24 0 0 0 34 34l87-87.1V808a24 24 0 0 0 48 0V602l87 87a24 24 0 1 0 34-34z" fill="#FFFFFF" p-id="1889"></path></svg>